<?xml version="1.0" encoding="utf-8"?>
<!-- Generator: Adobe Illustrator 22.1.0, SVG Export Plug-In . SVG Version: 6.00 Build 0)  -->
<svg version="1.1" id="Capa_1" xmlns="http://www.w3.org/2000/svg" xmlns:xlink="http://www.w3.org/1999/xlink" x="0px" y="0px"
	 viewBox="0 0 16.4 16.4" style="enable-background:new 0 0 16.4 16.4;" xml:space="preserve">
<style type="text/css">
	.st0{fill:#7AB9E5;}
</style>
<g>
	<g>
		<path class="st0" d="M4.3,5c0,0.3,0.1,0.4,0.2,0.5c0.2,1.5,1.5,3,2.7,3c1.4,0,2.6-1.5,2.9-3c0.1-0.1,0.2-0.3,0.2-0.5
			c0.1-0.3,0.2-0.8,0-1c0,0,0,0,0,0c0.2-0.6,0.4-1.9-0.4-2.7C9.9,1.2,9.5,0.7,8.6,0.4L8.2,0.3C7.4,0.1,7,0,7,0c0,0-0.1,0-0.1,0
			c0,0-0.1,0-0.2,0C6.5,0,6.3,0.1,6.2,0.1C6.2,0.1,4.8,0.7,4.4,2c0,0.1-0.2,0.6,0,2c0,0-0.1,0-0.1,0.1C4.2,4.3,4.3,4.8,4.3,5z
			 M4.9,2.1C4.9,2.1,4.9,2.1,4.9,2.1c0.3-1.1,1.5-1.6,1.6-1.6c0.1,0,0.2-0.1,0.2-0.1c0.1,0,0.3,0,0.3,0c0.1,0,0.5,0.1,1,0.2l0.4,0.1
			c0.8,0.2,1.1,0.7,1.1,0.7c0,0,0,0,0,0c0.7,0.8,0.3,2.1,0.2,2.5c0,0.1,0,0.2,0.1,0.3c0,0,0.1,0.1,0.1,0.1c0,0.1,0,0.3-0.1,0.5
			c0,0,0,0,0,0c0,0.1-0.1,0.2-0.1,0.3c-0.1,0-0.1,0.1-0.1,0.2C9.5,6.6,8.4,8,7.3,8C6.3,8,5.2,6.7,5.1,5.4C5,5.3,5,5.3,5,5.2
			C4.9,5.2,4.8,5.1,4.8,5c0,0,0,0,0,0C4.8,4.7,4.7,4.5,4.7,4.4c0,0,0.1,0,0.1-0.1C4.9,4.3,5,4.2,5,4.1C4.7,2.7,4.9,2.1,4.9,2.1z"/>
		<path class="st0" d="M12.2,9.4c-0.7-0.5-1.9-0.8-1.9-0.8C9.2,8.1,9.2,7.7,9.2,7.7c-2.2,4.3-3.9,0-3.9,0C5.2,8.3,2.9,9,2.9,9
			C2.3,9.3,2,9.7,2,9.7c-1,1.5-1.1,4.7-1.1,4.7c0,0.7,0.3,0.8,0.3,0.8c2.3,1,5.8,1.2,5.8,1.2c1,0,1.9,0,2.7-0.2
			c-0.8-0.7-1.3-1.7-1.3-2.9C8.5,11.2,10.1,9.5,12.2,9.4z"/>
		<path class="st0" d="M12.3,10c-1.8,0-3.2,1.4-3.2,3.2c0,1.8,1.4,3.2,3.2,3.2c1.8,0,3.2-1.4,3.2-3.2C15.5,11.4,14,10,12.3,10z
			 M12.1,14.7c-0.1,0.1-0.2,0.1-0.2,0l-1.5-1.6c-0.1-0.1-0.1-0.2,0-0.2l0.4-0.4c0.1-0.1,0.2-0.1,0.2,0l1.1,1.1l2-2
			c0.1-0.1,0.2-0.1,0.2,0l0.4,0.4c0.1,0.1,0.1,0.2,0,0.2L12.1,14.7z"/>
	</g>
</g>
</svg>
