<?xml version="1.0" encoding="utf-8"?>
<!-- Generator: Adobe Illustrator 22.1.0, SVG Export Plug-In . SVG Version: 6.00 Build 0)  -->
<svg version="1.1" id="Capa_1" xmlns="http://www.w3.org/2000/svg" xmlns:xlink="http://www.w3.org/1999/xlink" x="0px" y="0px"
	 viewBox="0 0 505 505" style="enable-background:new 0 0 505 505;" xml:space="preserve">
<style type="text/css">
	.st0{stroke:#000000;stroke-width:0.25;stroke-miterlimit:10;}
</style>
<g>
	<g>
		<path class="st0" d="M143.8,370.2c-5,0-9-4-9-9V143.8c0-5,4-9,9-9h217.4c5,0,9,4.1,9,9v217.4c0,5-4,9-9,9H143.8z M152.8,352.2
			h199.4V152.8H152.8v62.6h61.1c5,0,9,4,9,9s-4,9-9,9h-61.1v38.1h33.1c5,0,9,4,9,9s-4,9-9,9h-33.1V352.2z"/>
	</g>
</g>
<g>
	<g>
		<path class="st0" d="M361.2,500c-5,0-9-4-9-9v-49.9h-53.5V491c0,5-4,9-9,9s-9-4-9-9v-49.9h-54.9V491c0,5-4,9-9,9s-9-4-9-9v-49.9
			h-54.9V491c0,5-4,9-9,9s-9-4-9-9v-49.9H99.6c-19.7,0-35.7-16-35.7-35.7v-35.2H14c-5,0-9-4-9-9c0-5,4-9,9-9h49.9v-53.5H14
			c-5,0-9-4-9-9c0-5,4-9,9-9h49.9v-54.9H14c-5,0-9-4-9-9s4-9,9-9h49.9v-54.9H14c-5,0-9-4-9-9c0-5,4-9,9-9h49.9V99.6
			c0-19.7,16-35.7,35.7-35.7h35.2V14c0-5,4-9,9-9c5,0,9,4,9,9v49.9h53.5V14c0-5,4-9,9-9s9,4,9,9v49.9h54.9V14c0-5,4-9,9-9s9,4,9,9
			v49.9h54.9V14c0-5,4-9,9-9s9,4,9,9v49.9h35.2c19.7,0,35.7,16,35.7,35.7v35.2H491c5,0,9,4,9,9s-4,9-9,9h-49.9V207H491c5,0,9,4,9,9
			c0,3.7-2.2,6.9-5.5,8.3h-53.4v54.9H491c5,0,9,4,9,9s-4,9-9,9h-49.9v54.9H491c5,0,9,4,9,9s-4,9-9,9h-49.9v35.2
			c0,19.7-16,35.7-35.7,35.7h-35.2V491C370.2,495.9,366.2,500,361.2,500z M99.6,82C89.9,82,82,89.9,82,99.6v305.8
			c0,9.7,7.9,17.6,17.6,17.6h305.8c7.9,0,14.7-5.2,16.9-12.6h1.4l0-310.8c0-9.7-7.9-17.6-17.6-17.6H99.6z"/>
	</g>
</g>
</svg>
