<svg id="Capa_1" enable-background="new 0 0 512 512" height="512" viewBox="0 0 512 512" width="512" xmlns="http://www.w3.org/2000/svg" xmlns:xlink="http://www.w3.org/1999/xlink">
    <linearGradient id="SVGID_1_" gradientUnits="userSpaceOnUse" x1="256" x2="256" y1="512" y2="0">
        <stop offset="0" stop-color="#0094B5"/>
        <stop offset="1" stop-color="#9CEDFF"/>
    </linearGradient>
    <g>
        <g>
            <path d="m437 0h-362c-41.355 0-75 33.645-75 75v361c0 20.031 7.759 38.999 21.847 53.412 14.239 14.566 33.115 22.588 53.153 22.588h362c20.038 0 38.915-8.022 53.153-22.588 14.088-14.413 21.847-33.381 21.847-53.412v-361c0-41.355-33.645-75-75-75zm-197 482h-165c-24.393 0-45-21.065-45-46v-225h210zm0-301h-210v-106c0-24.813 20.187-45 45-45h165zm242 255c0 24.935-20.607 46-45 46h-167v-151h212zm0-135h-212v-271h167c24.813 0 45 20.187 45 45zm-422-165c0 8.284 6.716 15 15 15s15-6.716 15-15-6.716-15-15-15-15 6.716-15 15zm75 15c8.284 0 15-6.716 15-15s-6.716-15-15-15-15 6.716-15 15 6.716 15 15 15zm60 0c8.284 0 15-6.716 15-15s-6.716-15-15-15-15 6.716-15 15 6.716 15 15 15zm-120 300c8.284 0 15-6.716 15-15v-180c0-8.284-6.716-15-15-15s-15 6.716-15 15v180c0 8.284 6.716 15 15 15zm60-180h60c8.284 0 15-6.716 15-15s-6.716-15-15-15h-60c-8.284 0-15 6.716-15 15s6.716 15 15 15zm0 60h60c8.284 0 15-6.716 15-15s-6.716-15-15-15h-60c-8.284 0-15 6.716-15 15s6.716 15 15 15zm0 60h60c8.284 0 15-6.716 15-15s-6.716-15-15-15h-60c-8.284 0-15 6.716-15 15s6.716 15 15 15zm0 60h60c8.284 0 15-6.716 15-15s-6.716-15-15-15h-60c-8.284 0-15 6.716-15 15s6.716 15 15 15zm302-360h-15v-15c0-8.284-6.716-15-15-15s-15 6.716-15 15v15h-77c-8.284 0-15 6.716-15 15s6.716 15 15 15h77v15c0 8.284 6.716 15 15 15s15-6.716 15-15v-15h15c8.284 0 15-6.716 15-15s-6.716-15-15-15zm0 120h-77v-15c0-8.284-6.716-15-15-15s-15 6.716-15 15v15h-15c-8.284 0-15 6.716-15 15s6.716 15 15 15h15v15c0 8.284 6.716 15 15 15s15-6.716 15-15v-15h77c8.284 0 15-6.716 15-15s-6.716-15-15-15zm-122 240h122c8.284 0 15-6.716 15-15v-60c0-8.284-6.716-15-15-15h-122c-8.284 0-15 6.716-15 15v60c0 8.284 6.716 15 15 15zm15-60h92v30h-92z" fill="url(#SVGID_1_)"/>
        </g>
    </g>
</svg>