<?xml version="1.0" encoding="utf-8"?>
<!-- Generator: Adobe Illustrator 22.1.0, SVG Export Plug-In . SVG Version: 6.00 Build 0)  -->
<svg version="1.1" id="Capa_1" xmlns="http://www.w3.org/2000/svg" xmlns:xlink="http://www.w3.org/1999/xlink" x="0px" y="0px"
	 viewBox="0 0 512 512" style="enable-background:new 0 0 512 512;" xml:space="preserve">
<style type="text/css">
	.st0{display:none;stroke:#000000;stroke-width:0.25;stroke-miterlimit:10;}
	.st1{stroke:#000000;stroke-width:0.25;stroke-miterlimit:10;}
</style>
<g>
	<g>
		<path class="st0" d="M467,76H45C20.1,76,0,96.3,0,121v270c0,24.9,20.3,45,45,45h422c24.7,0,45-20,45-45V121
			C512,96.3,491.9,76,467,76z M460.7,106c-9.2,9.1-167.4,166.5-172.9,172c-8.5,8.5-19.8,13.2-31.8,13.2s-23.3-4.7-31.8-13.2
			C220.5,274.3,64,118.6,51.3,106H460.7z M30,384.9V127.1l129.6,129L30,384.9z M51.3,406l129.6-128.8l22.1,21.9
			c14.2,14.2,33,22,53,22s38.9-7.8,53-21.9l22.1-22L460.7,406H51.3z M482,384.9L352.4,256.1l129.6-129V384.9z"/>
		<path class="st1" d="M45,431c-22.1,0-40-17.9-40-40V121c0-22.1,17.9-40,40-40h422c22.1,0,40,17.9,40,40v270c0,22.1-17.9,40-40,40
			H45z M39.2,411h433.6L331.1,270.2l-25.6,25.5c-13.2,13.2-30.8,20.5-49.5,20.5s-36.3-7.3-49.5-20.5l-25.6-25.5L39.2,411z
			 M345.3,256.1L487,396.9V115.1L345.3,256.1z M25,396.9l141.7-140.8L25,115.1V396.9z M220.6,281.5c9.5,9.5,22,14.7,35.4,14.7
			c13.4,0,25.9-5.2,35.4-14.6L472.8,101H39.2C39.2,101,217,277.8,220.6,281.5z"/>
	</g>
</g>
</svg>
