<?xml version="1.0" encoding="utf-8"?>
<!-- Generator: Adobe Illustrator 22.1.0, SVG Export Plug-In . SVG Version: 6.00 Build 0)  -->
<svg version="1.1" id="Layer_1" xmlns="http://www.w3.org/2000/svg" xmlns:xlink="http://www.w3.org/1999/xlink" x="0px" y="0px"
	 viewBox="0 0 714.4 88.9" style="enable-background:new 0 0 714.4 88.9;" xml:space="preserve">
<style type="text/css">
	.Arched_x0020_Green{fill:url(#SVGID_1_);stroke:#FFFFFF;stroke-width:0.25;stroke-miterlimit:1;}
	.st0{opacity:0.5;}
	.st1{fill:#070909;}
</style>
<linearGradient id="SVGID_1_" gradientUnits="userSpaceOnUse" x1="-16.902" y1="432.568" x2="-16.1949" y2="431.8609">
	<stop  offset="0" style="stop-color:#64AA52"/>
	<stop  offset="0.9831" style="stop-color:#273820"/>
</linearGradient>
<g class="st0">
	<path d="M192.2,87.4h-5.1V46.7c0-7.5-1.3-12.7-4-15.9c-2.7-3.1-6.6-4.7-11.7-4.7c-5.4,0-9.8,2-13.3,6c-3.5,4-5.2,8.9-5.2,14.6v40.6
		h-5.2V46.8c0-7.8-1.3-13.2-3.9-16.1c-2.6-2.9-6.6-4.4-12.1-4.4c-6.5,0-11.3,2.8-14.4,8.4c-3.1,5.6-4.6,12.6-4.6,21v31.7h-5.2v-64
		h4.9v19.2c1.5-7.3,4.1-12.6,8-15.9c3.9-3.3,8.3-5,13.2-5c5.3,0,9.5,1.3,12.5,4c3.1,2.7,5,7.2,5.8,13.5c1.1-5.6,3.7-10,7.7-13
		c4-3,8.3-4.5,12.9-4.5c13.1,0,19.6,7.9,19.6,23.7V87.4z"/>
	<path d="M207.4,15.7h-5.2V0h5.2V15.7z M207.4,87.4h-5.2v-64h5.2V87.4z"/>
	<path d="M271.5,87.4h-6l-23.4-36.1l-19.4,17.7v18.5h-5.2V0h5.2v62.7l42.5-39.3h6.6L246,47.7L271.5,87.4z"/>
	<path d="M283.6,87.4h-5.2v-64h4.9v18.9c1.8-7.3,5.1-12.5,9.8-15.7c4.7-3.2,9.8-4.8,15.5-4.8h4.2v5.5c-1.6-0.2-3.2-0.3-4.8-0.3
		c-7.9,0-13.9,2.8-18.1,8.3c-4.2,5.5-6.2,12.2-6.2,20V87.4z"/>
	<path d="M343.4,89c-9.4,0-16.9-3.1-22.3-9.2c-5.4-6.2-8.1-14.3-8.1-24.4c0-10.2,2.8-18.4,8.3-24.5c5.5-6.1,12.9-9.2,22.2-9.2
		c9.3,0,16.6,3.1,22,9.2c5.4,6.1,8.1,14.3,8.1,24.5c0,10.2-2.7,18.4-8.1,24.5C359.8,86,352.5,89,343.4,89z M343.4,84.6
		c7.7,0,13.8-2.6,18.2-7.9c4.4-5.2,6.6-12.4,6.6-21.4c0-9-2.2-16.1-6.6-21.3c-4.4-5.2-10.5-7.8-18.3-7.8c-7.8,0-13.9,2.6-18.4,7.9
		c-4.5,5.2-6.7,12.3-6.7,21.3c0,8.9,2.2,16,6.6,21.3C329.3,82,335.5,84.6,343.4,84.6z"/>
	<path d="M459.7,87.4h-19.6l-5.5-17.8h-31.9l-6.1,17.8h-19.1L408.4,1h20.9L459.7,87.4z M429.4,54.7l-10.8-34.3h-0.1l-11,34.3H429.4z
		"/>
	<path d="M519.5,87.4h-16.3l-0.1-7.8c-3.9,6.3-9.8,9.5-17.8,9.5c-8.2,0-14.9-3.1-20-9.2c-5.1-6.2-7.7-14.5-7.7-25.1
		c0-9.9,2.3-17.9,7-23.9c4.7-6.1,11.1-9.1,19.2-9.1c7.9,0,14.2,3.3,19,10V0h16.6V87.4z M489.2,75.3c4.1,0,7.5-1.7,10.2-5.1
		c2.7-3.4,4.1-7.8,4.1-13.2c0-13.9-4.7-20.8-14.2-20.8c-9.7,0-14.6,6.6-14.6,19.8c0,5.7,1.3,10.4,4,14
		C481.5,73.5,485,75.3,489.2,75.3z"/>
	<path d="M618.4,87.4h-16.5V48.6c0-3.8-0.9-7-2.8-9.4c-1.9-2.5-4.3-3.7-7.2-3.7c-3.1,0-5.7,1.3-7.7,3.9c-2,2.6-3.1,5.9-3.1,9.8v38.2
		h-16.9V48.9c0-5-0.7-8.4-2.2-10.2c-1.5-1.8-4.1-2.7-7.9-2.7c-6.8,0-10.3,4.2-10.3,12.5v38.9h-16.9v-64h15.9v9.4
		c2.1-4.1,4.6-6.9,7.6-8.6c3-1.6,6.7-2.5,11.1-2.5c4.2,0,7.6,0.7,10.2,2.2c2.6,1.5,5.1,4.1,7.6,7.9c3.4-6.8,9.1-10.1,17.3-10.1
		c6.3,0,11.5,2,15.7,6.1c4.1,4.1,6.2,9.1,6.2,15.2V87.4z"/>
	<path d="M642.2,15.7h-16.9V0h16.9V15.7z M642.2,87.4h-16.9v-64h16.9V87.4z"/>
	<path d="M707.9,87.4h-17V48.6c0-4.9-0.8-8.2-2.4-9.9c-1.6-1.8-4.4-2.7-8.5-2.7c-8.8,0-13.1,4.9-13.1,14.7v36.7h-16.9v-64H666v9.4
		c4-7.4,10.9-11,20.7-11c6.3,0,11.4,1.9,15.3,5.6c3.9,3.7,5.9,9,5.9,15.7V87.4z"/>
</g>
<g class="st0">
	<g>
		<path class="st1" d="M18.4,27.1c0.2,1.4,0.8,2.2,1.3,2.8c1.2,8.3,8.2,15.9,14.5,15.9c7.4,0,14.1-8.3,15.4-15.9
			c0.5-0.5,1.1-1.4,1.3-2.8c0.4-1.6,1-4.2,0-5.5c-0.1-0.1-0.1-0.1-0.2-0.2c0.9-3.3,2-10-2-14.6c-0.4-0.5-2.6-3.2-7.4-4.6L39,1.5
			C35.2,0.3,32.8,0,32.7,0c-0.2,0-0.3,0-0.5,0c-0.1,0-0.6,0.2-0.9,0.1c-0.9-0.1-2.3,0.3-2.5,0.4c-0.3,0.1-7.7,3.1-9.9,9.9
			c-0.2,0.6-1.1,3.5,0.1,10.6c-0.2,0.1-0.3,0.3-0.5,0.4C17.4,22.8,18,25.5,18.4,27.1z M21.3,11.5c0,0,0-0.1,0-0.1
			c1.8-5.6,8.3-8.3,8.3-8.3c0.3-0.1,0.9-0.3,1.2-0.3c0.6,0.1,1.4,0,1.8-0.1c0.6,0.1,2.7,0.4,5.5,1.3l2.3,0.8
			c4.3,1.3,6.1,3.7,6.1,3.7c0,0,0.1,0.1,0.1,0.1c3.7,4.2,1.8,11.2,1.1,13.2c-0.2,0.5,0,1,0.3,1.4c0.2,0.2,0.4,0.3,0.6,0.4
			c0,0.7-0.2,1.9-0.5,2.9c0,0,0,0.1,0,0.2c-0.1,0.7-0.4,1.3-0.7,1.5C47.2,28.3,47,28.7,47,29c-0.9,6.4-6.8,14.1-12.8,14.1
			c-5,0-11-7.1-11.9-14.1c0-0.4-0.2-0.7-0.5-0.9c-0.3-0.3-0.6-0.8-0.7-1.5c0-0.1,0-0.1,0-0.2c-0.3-1-0.5-2.1-0.5-2.8
			c0.3,0,0.5-0.1,0.7-0.3c0.4-0.3,0.6-0.8,0.5-1.3C20.3,14.3,21.3,11.5,21.3,11.5z"/>
		<path class="st1" d="M60.8,50.3c-4-2.6-10-4.5-10-4.5c-6-2.1-6.1-4.2-6.1-4.2C32.9,64.8,24,41.6,24,41.6c-0.8,3.1-13,6.8-13,6.8
			c-3.6,1.4-5.1,3.4-5.1,3.4C0.6,59.6,0,77,0,77c0.1,4,1.8,4.4,1.8,4.4c12.1,5.4,31.1,6.4,31.1,6.4c5.3,0.1,10.2-0.3,14.5-0.8
			c-4.1-3.9-6.8-9.4-6.8-15.5C40.6,60.1,49.6,50.8,60.8,50.3z"/>
		<path class="st1" d="M61,53.5c-9.5,0-17.2,7.7-17.2,17.2c0,9.5,7.7,17.2,17.2,17.2c9.5,0,17.2-7.7,17.2-17.2
			C78.2,61.2,70.5,53.5,61,53.5z M59.9,79.2c-0.4,0.4-1,0.4-1.3,0l-8.3-8.3c-0.4-0.4-0.4-1,0-1.3l2-2c0.4-0.4,1-0.4,1.3,0l5.7,5.7
			l11-11c0.4-0.4,1-0.4,1.3,0l2,2c0.4,0.4,0.4,1,0,1.3L59.9,79.2z"/>
	</g>
</g>
</svg>
