<?xml version="1.0" encoding="utf-8"?>
<!-- Generator: Adobe Illustrator 22.1.0, SVG Export Plug-In . SVG Version: 6.00 Build 0)  -->
<svg version="1.1" id="Слой_1" xmlns="http://www.w3.org/2000/svg" xmlns:xlink="http://www.w3.org/1999/xlink" x="0px" y="0px"
	 viewBox="0 0 480.4 116.7" style="enable-background:new 0 0 480.4 116.7;" xml:space="preserve">
<style type="text/css">
	.st0{opacity:0.5;}
</style>
<title>logo</title>
<polygon class="st0" points="20.2,37.7 0,115.1 8.6,115.1 26.1,44 26.4,44 41.4,115.1 50.2,115.1 101.6,45 101.9,45 82.8,115.1 
	91.5,115.1 111.4,37.7 98.5,37.7 47.5,107.2 33,37.7 "/>
<polygon class="st0" points="119.7,59.1 105.3,115.1 113.5,115.1 127.9,59.1 "/>
<polygon class="st0" points="139.7,59.1 125.4,115.1 133.6,115.1 138.8,94.8 153.1,84.8 171,115.1 179.9,115.1 159.6,80.7 
	191.4,59.1 180.5,59.1 141.2,86.4 140.9,86.2 147.9,59.1 "/>
<path class="st0" d="M196.2,59.1l-14.4,56h8.2l7.6-29.3c2.7-10.5,10.5-20.4,25.2-20.6c1.6,0,3.1,0.1,4.7,0.1l1.8-6.8
	c-1.4-0.1-3-0.1-4.4-0.1c-12-0.1-19.1,5.6-24.3,13.7h-0.3l3.4-12.9L196.2,59.1z"/>
<path class="st0" d="M286.1,79.4c0-13.8-10.9-21.9-26.5-21.9c-23.9,0-37.5,17.6-37.5,35.9c0,14,9.5,23.3,26.8,23.3
	C273.8,116.7,286.1,98.3,286.1,79.4 M277.9,80.8c0,13-9.5,30.1-27.4,30.1c-13.7,0-20.2-7.4-20.2-18.2c0-13.1,9.9-29.5,27.8-29.5
	C271.3,63.3,277.9,70.4,277.9,80.8"/>
<polygon class="st0" points="364.8,59.1 370.1,37.7 290,37.7 284.7,59.1 310.4,59.1 310.4,59.1 339.1,59.1 339.1,59.1 "/>
<polygon class="st0" points="307.9,69.4 296.5,115.1 325.1,115.1 336.5,69.4 336.5,69.4 307.9,69.4 "/>
<path class="st0" d="M369.4,69.4l-11.3,45.7h25.8l11.3-45.7H369.4z M397.8,59.1l5.4-21.4h-25.8l-5.4,21.5L397.8,59.1z"/>
<polygon class="st0" points="413.8,37.7 394.5,115.1 420.3,115.1 424.3,99 430.2,94.7 439.3,115.1 467.2,115.1 450.1,81.4 
	480.4,58.8 449.5,58.8 430.5,75.3 430.3,75.3 439.5,37.7 "/>
<path class="st0" d="M130.8,0c3.1,21.9,14.9,35.1,38.8,36.2C147.1,44.8,123.8,24.6,130.8,0"/>
<path class="st0" d="M118.3,3.8c0.3-0.1,0.3,0.1,0.3,0.3c0.8,13.9,6.6,24.5,14.4,31.7s18.3,13.1,33,12.8
	C138.4,59.7,109.4,33.3,118.3,3.8"/>
</svg>
