<?xml version="1.0" encoding="utf-8"?>
<!-- Generator: Adobe Illustrator 22.1.0, SVG Export Plug-In . SVG Version: 6.00 Build 0)  -->
<svg version="1.1" id="Слой_1" xmlns="http://www.w3.org/2000/svg" xmlns:xlink="http://www.w3.org/1999/xlink" x="0px" y="0px"
	 viewBox="0 0 200 100" style="enable-background:new 0 0 200 100;" xml:space="preserve">
<g>
	<path d="M7.3,37.6l6,24.2l14.4-24.2h1.4l-4.4,25.6h-0.9l4.2-24l-14.4,24h-0.7L6.7,39.1L2.5,63.2H1.6L6,37.6H7.3z"/>
	<path d="M32.4,63.2h-0.9l3.3-19h0.9L32.4,63.2z M35.3,38.2c0-0.2,0.2-0.5,0.4-0.7s0.4-0.3,0.7-0.3c0.3,0,0.5,0.1,0.7,0.3
		s0.2,0.4,0.2,0.7c0,0.2-0.2,0.4-0.4,0.6s-0.5,0.3-0.7,0.3c-0.3,0-0.5-0.1-0.7-0.3S35.2,38.4,35.3,38.2z"/>
	<path d="M44.1,52.9L44.1,52.9l-3.2,2.4l-1.3,7.8h-0.9l4.7-27h0.9l-3.1,18l12.2-10h1.5l-10,8.1l7.1,10.9h-1.2L44.1,52.9z"/>
	<path d="M66.6,44.8l-1.1-0.1c-1.6,0-3,0.6-4.4,1.7c-1.3,1.2-2.3,2.6-2.7,4.2l-2.2,12.5h-0.9l3.3-19h0.9l-0.7,4
		c0.8-1.4,1.8-2.4,2.9-3.2s2.4-1.1,3.8-1.1c0.4,0,0.9,0.1,1.3,0.2L66.6,44.8z"/>
	<path d="M67.1,53.3c0.3-1.8,0.9-3.4,1.8-4.8s2-2.6,3.3-3.4s2.8-1.2,4.4-1.2c1.3,0,2.4,0.3,3.4,0.9s1.8,1.4,2.4,2.6s0.9,2.4,1,3.8
		c0,0.8,0,1.8-0.2,3.1c-0.3,1.8-0.9,3.4-1.8,4.9s-2,2.6-3.3,3.4s-2.8,1.2-4.4,1.2c-1.3,0-2.4-0.3-3.4-0.9s-1.8-1.4-2.4-2.5
		s-0.9-2.4-1-3.8C66.8,55.5,66.9,54.5,67.1,53.3z M67.9,57c0.2,1.7,0.9,3,1.9,4s2.3,1.5,3.9,1.5c1.8,0,3.5-0.6,5-1.9s2.6-3,3.2-5.2
		c0.5-1.8,0.7-3.5,0.5-5.2c-0.3-1.7-0.9-3-1.9-4s-2.3-1.5-3.8-1.5c-1.8,0-3.5,0.7-5,2s-2.6,3-3.2,5.2C67.8,53.7,67.7,55.4,67.9,57z"
		/>
	<path d="M102.4,63.2l-0.7-5.6h-9l-3,5.6h-6.4L97.8,38h6.8l3.6,25.2H102.4z M100.3,44.7c0-0.2,0-0.4,0-0.6s0-0.4,0-0.7s0-0.4,0-0.6
		s0-0.3,0-0.4h-0.1c0,0.1-0.1,0.2-0.1,0.4s-0.1,0.3-0.2,0.5s-0.2,0.4-0.3,0.6s-0.2,0.4-0.3,0.6l-4.6,8.6h6.5L100.3,44.7z"/>
	<path d="M128.7,57.2c-0.1,0.4-0.2,0.8-0.2,1.3s-0.1,1.1-0.2,1.6s-0.1,1.1-0.2,1.6s-0.1,1-0.1,1.4h-5.6c0-0.2,0-0.4,0-0.7
		s0-0.6,0.1-0.9s0.1-0.6,0.1-0.9s0-0.5,0.1-0.7h-0.1c-0.4,0.5-0.7,1-1.1,1.4s-0.8,0.8-1.3,1.1s-0.9,0.5-1.5,0.7s-1.1,0.3-1.7,0.3
		c-0.9,0-1.6-0.2-2.3-0.5s-1.3-0.7-1.7-1.3s-0.8-1.3-1.1-2.2s-0.4-1.8-0.4-2.9c0-1.6,0.3-3.1,0.8-4.5c0.5-1.4,1.3-2.7,2.3-3.8
		s2.2-2,3.7-2.6s3.1-1,4.9-1c0.5,0,0.9,0,1.4,0.1s0.9,0.1,1.2,0.2l1.8-8.4h5.5L128.7,57.2z M124.1,48.7c-0.3,0-0.6-0.1-0.9-0.1
		c-0.8,0-1.5,0.1-2.1,0.4s-1.1,0.6-1.6,1.1s-0.8,0.9-1.1,1.5s-0.5,1.1-0.7,1.7s-0.3,1.1-0.4,1.7s-0.1,1-0.1,1.4c0,0.4,0,0.8,0.1,1.2
		s0.2,0.7,0.4,1s0.4,0.5,0.7,0.6s0.6,0.2,1,0.2c0.6,0,1.2-0.2,1.7-0.6s1-0.9,1.4-1.5s0.7-1.3,1-2.1s0.5-1.5,0.7-2.3l0.9-4.1
		C124.7,48.8,124.4,48.7,124.1,48.7z"/>
	<path d="M163.2,49.5c0,0.2,0,0.4-0.1,0.7s-0.1,0.6-0.1,0.9c-0.1,0.3-0.1,0.6-0.2,0.9s-0.1,0.6-0.2,0.8l-2.2,10.4h-5.6l2.2-10.3
		c0.1-0.4,0.1-0.8,0.2-1.2s0.1-0.7,0.1-0.9c0-0.6-0.1-1-0.4-1.4s-0.7-0.5-1.3-0.5c-0.4,0-0.9,0.2-1.4,0.5s-1,0.7-1.4,1.2
		c-0.5,0.5-0.8,1.1-1.2,1.7s-0.6,1.3-0.7,2l-1.8,8.9h-5.6l2.2-10.3c0.1-0.4,0.1-0.8,0.2-1.2s0.1-0.7,0.1-0.9c0-0.6-0.1-1-0.4-1.4
		s-0.7-0.5-1.3-0.5c-0.5,0-0.9,0.2-1.4,0.5s-1,0.7-1.4,1.2c-0.4,0.5-0.8,1.1-1.2,1.7s-0.6,1.3-0.7,1.9l-1.9,8.9H132l2.7-12.3
		c0.1-0.5,0.2-1.1,0.3-1.6s0.2-1.1,0.3-1.6s0.2-1,0.2-1.4s0.1-0.8,0.1-1.1h5.5c0,0.3-0.1,0.7-0.1,1s-0.1,0.7-0.1,1s-0.1,0.6-0.1,0.9
		s-0.1,0.4-0.1,0.5h0.1c0.4-0.6,0.9-1.1,1.4-1.6s1-0.9,1.6-1.2s1.1-0.6,1.7-0.8s1.2-0.3,1.8-0.3c1.4,0,2.5,0.4,3.2,1.1
		s1.1,1.7,1.2,3c0.4-0.6,0.9-1.2,1.5-1.7s1.1-0.9,1.7-1.3s1.2-0.6,1.9-0.8s1.3-0.3,2-0.3c1.5,0,2.6,0.4,3.4,1.2
		S163.2,47.9,163.2,49.5z"/>
	<path d="M173.9,63c-0.2,0.1-0.5,0.1-0.7,0.2s-0.6,0.1-0.9,0.2s-0.6,0.1-1,0.1s-0.7,0-1,0c-0.8,0-1.5-0.1-2-0.3s-1-0.5-1.4-0.9
		s-0.6-0.8-0.8-1.3s-0.3-1.1-0.3-1.7c0-0.3,0-0.5,0-0.9s0.1-0.6,0.1-1s0.1-0.7,0.2-1.1s0.1-0.7,0.2-1c0-0.2,0.1-0.6,0.2-1.1
		s0.2-1.1,0.4-1.8s0.3-1.4,0.5-2.2c0.2-0.8,0.3-1.5,0.5-2.2s0.3-1.3,0.4-1.8s0.2-0.9,0.2-1.1h5.6l-2.1,10.1
		c-0.1,0.4-0.2,0.9-0.3,1.4s-0.2,1-0.2,1.3c0,0.4,0.1,0.8,0.4,0.9s0.6,0.3,1,0.3c0.3,0,0.6,0,0.9-0.1s0.6-0.1,0.9-0.3
		c-0.2,0.7-0.3,1.4-0.4,2.1S174.1,62.3,173.9,63z M175.7,39.4c0,0.5-0.1,0.9-0.3,1.2s-0.4,0.7-0.7,0.9s-0.7,0.5-1.1,0.6
		s-0.8,0.2-1.3,0.2c-0.4,0-0.9-0.1-1.2-0.2s-0.7-0.3-1-0.6s-0.5-0.5-0.7-0.9s-0.2-0.7-0.2-1.1c0-0.5,0.1-0.9,0.3-1.2
		s0.4-0.7,0.7-0.9s0.7-0.5,1.1-0.6s0.9-0.2,1.3-0.2c0.4,0,0.9,0.1,1.2,0.2s0.7,0.3,1,0.6s0.5,0.5,0.7,0.9S175.7,39,175.7,39.4z"/>
	<path d="M196.2,49.5c0,0.2,0,0.4-0.1,0.7s-0.1,0.6-0.1,0.9c-0.1,0.3-0.1,0.6-0.2,0.9s-0.1,0.6-0.2,0.8l-2.2,10.4h-5.6l2.2-10.3
		c0.1-0.4,0.1-0.8,0.2-1.2s0.1-0.7,0.1-0.9c0-0.6-0.1-1-0.4-1.3s-0.7-0.5-1.3-0.5c-0.5,0-1,0.1-1.5,0.4s-1,0.7-1.5,1.2
		c-0.5,0.5-0.9,1.1-1.2,1.7s-0.6,1.3-0.7,2l-1.9,8.9h-5.7l2.7-12.3c0.1-0.5,0.2-1.1,0.3-1.6s0.2-1.1,0.3-1.6s0.2-1,0.2-1.4
		s0.1-0.8,0.1-1.1h5.5c0,0.3-0.1,0.7-0.1,1s-0.1,0.7-0.1,1s-0.1,0.6-0.1,0.9s-0.1,0.4-0.1,0.5h0.1c0.4-0.5,0.9-1,1.4-1.5
		s1.1-0.9,1.6-1.2s1.2-0.6,1.8-0.8s1.2-0.3,1.9-0.3c1.5,0,2.6,0.4,3.4,1.2S196.2,48,196.2,49.5z"/>
</g>
</svg>
