<?xml version="1.0" encoding="utf-8"?>
<!-- Generator: Adobe Illustrator 22.1.0, SVG Export Plug-In . SVG Version: 6.00 Build 0)  -->
<svg version="1.1" id="_x31__x2C_5" xmlns="http://www.w3.org/2000/svg" xmlns:xlink="http://www.w3.org/1999/xlink" x="0px"
	 y="0px" viewBox="0 0 512 512" style="enable-background:new 0 0 512 512;" xml:space="preserve">
<style type="text/css">
	.st0{stroke:#000000;stroke-width:0.25;stroke-miterlimit:10;}
</style>
<path class="st0" d="M112,510c-25.4,0-46-20.6-46-46V240c0-25.4,20.6-46,46-46h288c25.4,0,46,20.6,46,46v224c0,25.4-20.6,46-46,46
	H112z M112,222c-9.9,0-18,8.1-18,18v224c0,9.9,8.1,18,18,18h288c9.9,0,18-8.1,18-18V240c0-9.9-8.1-18-18-18H112z"/>
<path class="st0" d="M368,222c-7.7,0-14-6.3-14-14v-80c0-54-44-98-98-98c-54,0-98,44-98,98v80c0,7.7-6.3,14-14,14s-14-6.3-14-14v-80
	C130,58.5,186.5,2,256,2s126,56.5,126,126v80C382,215.7,375.7,222,368,222z"/>
<path class="st0" d="M256,359.7c-21.9,0-39.7-17.8-39.7-39.7s17.8-39.7,39.7-39.7s39.7,17.8,39.7,39.7S277.9,359.7,256,359.7z
	 M256,306.3c-7.5,0-13.7,6.1-13.7,13.7s6.1,13.7,13.7,13.7c7.5,0,13.7-6.1,13.7-13.7S263.5,306.3,256,306.3z"/>
<path class="st0" d="M256,424.7c-7.7,0-14-6.3-14-14V352c0-7.7,6.3-14,14-14s14,6.3,14,14v58.7C270,418.4,263.7,424.7,256,424.7z"/>
</svg>
