<?xml version="1.0" encoding="utf-8"?>
<!-- Generator: Adobe Illustrator 22.1.0, SVG Export Plug-In . SVG Version: 6.00 Build 0)  -->
<svg version="1.1" id="Слой_1" xmlns="http://www.w3.org/2000/svg" xmlns:xlink="http://www.w3.org/1999/xlink" x="0px" y="0px"
	 viewBox="0 0 253.8 216" style="enable-background:new 0 0 253.8 216;" xml:space="preserve">
<style type="text/css">
	.st0{stroke:#000000;stroke-width:0.25;stroke-linecap:square;stroke-miterlimit:10;}
</style>
<path class="st0" d="M127.7,104c-3.5,0-6.4-4.1-6.4-9V68c0-4.9,2.9-9,6.4-9c3.5,0,6.4,4.1,6.4,9v27C134.1,99.9,131.1,104,127.7,104z
	"/>
<path class="st0" d="M163.3,104c-3.5,0-6.4-4.1-6.4-9V68c0-4.9,2.9-9,6.4-9c3.5,0,6.4,4.1,6.4,9v27C169.7,99.9,166.8,104,163.3,104z
	"/>
<path class="st0" d="M198.9,104c-3.5,0-6.4-4.1-6.4-9V68c0-4.9,2.9-9,6.4-9c3.5,0,6.4,4.1,6.4,9v27C205.3,99.9,202.4,104,198.9,104z
	"/>
<path class="st0" d="M92.1,104c-3.5,0-6.4-4.1-6.4-9V68c0-4.9,2.9-9,6.4-9s6.4,4.1,6.4,9v27C98.4,99.9,95.5,104,92.1,104z"/>
<path class="st0" d="M56.4,104c-3.5,0-6.4-4.1-6.4-9V68c0-4.9,2.9-9,6.4-9s6.4,4.1,6.4,9v27C62.8,99.9,59.9,104,56.4,104z"/>
<path class="st0" d="M64.1,212c-3.5,0-6.4-4.1-6.4-9v-42H20.8c-3.5,0-6.4-4.1-6.4-9V13c0-4.9,2.9-9,6.4-9h213.1c3.5,0,6.4,4.1,6.4,9
	v139c0,4.9-2.9,9-6.4,9H197v42c0,4.9-2.9,9-6.4,9H64.1z M27.2,143h36.9c3.5,0,6.4,4.1,6.4,9v42h113.7v-42c0-4.9,2.9-9,6.4-9h36.9V22
	H27.2V143z"/>
</svg>
