<?xml version="1.0" encoding="iso-8859-1"?>
<!-- Generator: Adobe Illustrator 19.0.0, SVG Export Plug-In . SVG Version: 6.00 Build 0)  -->
<svg version="1.1" id="Capa_1" xmlns="http://www.w3.org/2000/svg" xmlns:xlink="http://www.w3.org/1999/xlink" x="0px" y="0px"
	 viewBox="0 0 480 480" style="enable-background:new 0 0 480 480;" xml:space="preserve">
<g>
	<g>
		<g>
			<path d="M64,447.35c17.673,0,32-14.327,32-32c0-17.673-14.327-32-32-32s-32,14.327-32,32C32,433.023,46.327,447.35,64,447.35z
				 M64,399.35c8.837,0,16,7.163,16,16s-7.163,16-16,16s-16-7.163-16-16S55.163,399.35,64,399.35z"/>
			<path d="M120,423.35h96c4.418,0,8-3.582,8-8s-3.582-8-8-8h-96c-4.418,0-8,3.582-8,8S115.582,423.35,120,423.35z"/>
			<rect x="256" y="399.35" width="16" height="32"/>
			<rect x="288" y="399.35" width="16" height="32"/>
			<rect x="320" y="399.35" width="16" height="32"/>
			<rect x="352" y="399.35" width="16" height="32"/>
			<rect x="384" y="399.35" width="16" height="32"/>
			<rect x="416" y="399.35" width="16" height="32"/>
			<path d="M479.808,358.398c0-0.264,0.064-0.52,0-0.8l-26.4-118.976c-4.034-18.332-20.318-31.36-39.088-31.272h-40.144
				L472.8,36.558c6.625-11.455,2.709-26.112-8.745-32.737c-0.037-0.021-0.074-0.042-0.11-0.063
				c-11.501-6.369-25.98-2.481-32.744,8.792l-112.464,194.8H161.264L48.8,12.542C42.059,1.202,27.504-2.692,16,3.766
				C4.515,10.384,0.569,25.058,7.187,36.543c0.004,0.008,0.009,0.015,0.013,0.023l98.624,170.784H65.68
				c-18.782-0.085-35.072,12.958-39.096,31.304l-26.4,118.96c-0.056,0.264,0,0.52,0,0.8c-0.081,0.308-0.142,0.621-0.184,0.936v80
				c0.026,22.08,17.92,39.974,40,40h400c22.08-0.026,39.974-17.92,40-40v-80C479.956,359.029,479.892,358.711,479.808,358.398z
				 M445.08,20.55c2.256-3.762,7.096-5.045,10.92-2.896c1.825,1.039,3.154,2.769,3.688,4.8c0.561,2.055,0.273,4.248-0.8,6.088
				L355.704,207.35h-18.488L445.08,20.55z M21.08,28.55c-1.073-1.84-1.361-4.034-0.8-6.088c0.517-2.021,1.822-3.749,3.624-4.8
				c3.8-2.254,8.708-1.001,10.962,2.799c0.013,0.022,0.025,0.043,0.038,0.065l107.88,186.824h-18.488L21.08,28.55z M42.2,242.15
				c2.417-11.018,12.201-18.851,23.48-18.8h348.64c11.27-0.053,21.048,7.769,23.472,18.776l24.24,109.224H17.968L42.2,242.15z
				 M464,439.35c0,13.255-10.745,24-24,24H40c-13.255,0-24-10.745-24-24v-72h448V439.35z"/>
			<path d="M352,239.35H64c-4.418,0-8,3.582-8,8s3.582,8,8,8h288c4.418,0,8-3.582,8-8S356.418,239.35,352,239.35z"/>
			<path d="M416,239.35h-32c-4.418,0-8,3.582-8,8s3.582,8,8,8h32c4.418,0,8-3.582,8-8S420.418,239.35,416,239.35z"/>
		</g>
	</g>
</g>
<g>
</g>
<g>
</g>
<g>
</g>
<g>
</g>
<g>
</g>
<g>
</g>
<g>
</g>
<g>
</g>
<g>
</g>
<g>
</g>
<g>
</g>
<g>
</g>
<g>
</g>
<g>
</g>
<g>
</g>
</svg>
