<svg xmlns="http://www.w3.org/2000/svg" viewBox="0 0 83.54 85.44"><defs><style>.cls-1{fill:#292b37;}.cls-2{fill:#23252f;}.cls-3{fill:#383c48;}.cls-4{isolation:isolate;}.cls-5{fill:#f7f5f5;}.cls-6{fill:#eaa746;}.cls-7{fill:#e55e5e;}.cls-8{fill:#a8c05f;}</style></defs><title>Ресурс 1</title><g id="Слой_2" data-name="Слой 2"><g id="Layer_1" data-name="Layer 1"><rect class="cls-1" x="39.92" y="11.09" width="4.29" height="30.61"/><path class="cls-2" d="M43.59,10.22a3.33,3.33,0,0,0-3,0c-.84.48-.84,1.26,0,1.75a3.39,3.39,0,0,0,3,0A.93.93,0,0,0,43.59,10.22Z"/><path class="cls-1" d="M39.92,8.61v1.46a1.07,1.07,0,0,0,.63.87,3.33,3.33,0,0,0,3,0,1.07,1.07,0,0,0,.63-.87V8.61Z"/><path class="cls-2" d="M43.59,7.74a3.33,3.33,0,0,0-3,0,.92.92,0,0,0,0,1.75,3.39,3.39,0,0,0,3,0A.93.93,0,0,0,43.59,7.74Z"/><path class="cls-1" d="M39.92,6.14V7.59a1.08,1.08,0,0,0,.63.88,3.39,3.39,0,0,0,3,0,1.08,1.08,0,0,0,.63-.88V6.14Z"/><ellipse class="cls-2" cx="42.07" cy="6.14" rx="2.15" ry="1.24"/><path class="cls-1" d="M39.92,3.66V5.11a1.07,1.07,0,0,0,.63.88,3.39,3.39,0,0,0,3,0,1.07,1.07,0,0,0,.63-.88V3.66Z"/><path class="cls-3" d="M44.08,3.23h0v0l0,0-.23-.31H40.33l-.19.25-.1.15v0h0c-.24.43-.07.91.52,1.25a3.33,3.33,0,0,0,3,0C44.2,4.18,44.36,3.67,44.08,3.23Z"/><path class="cls-3" d="M43.31.86a2.71,2.71,0,0,0-2.48,0,.76.76,0,0,0,0,1.43,2.77,2.77,0,0,0,2.48,0A.76.76,0,0,0,43.31.86Z"/><path class="cls-1" d="M43.82,1.57A1.5,1.5,0,0,0,43.31.46a1.91,1.91,0,0,0-2.48,0,1.5,1.5,0,0,0-.51,1.11V2.76a.85.85,0,0,0,.51.71,2.71,2.71,0,0,0,2.48,0,.85.85,0,0,0,.51-.71Z"/><rect class="cls-1" x="74.64" y="29.08" width="4.29" height="30.61"/><path class="cls-2" d="M78.31,28.21a3.33,3.33,0,0,0-3,0,.92.92,0,0,0,0,1.75,3.39,3.39,0,0,0,3,0A.93.93,0,0,0,78.31,28.21Z"/><path class="cls-1" d="M74.64,26.61v1.45a1.08,1.08,0,0,0,.63.88,3.39,3.39,0,0,0,3,0,1.06,1.06,0,0,0,.62-.88V26.61Z"/><ellipse class="cls-2" cx="76.79" cy="26.61" rx="2.15" ry="1.24"/><path class="cls-1" d="M74.64,24.13v1.45a1.07,1.07,0,0,0,.63.88,3.39,3.39,0,0,0,3,0,1.05,1.05,0,0,0,.62-.88V24.13Z"/><path class="cls-2" d="M78.31,23.25a3.39,3.39,0,0,0-3,0,.93.93,0,0,0,0,1.76,3.39,3.39,0,0,0,3,0A.93.93,0,0,0,78.31,23.25Z"/><path class="cls-1" d="M74.64,21.65V23.1a1.07,1.07,0,0,0,.63.88,3.39,3.39,0,0,0,3,0,1.05,1.05,0,0,0,.62-.88V21.65Z"/><path class="cls-3" d="M78.8,21.22h0v0l0,0-.23-.31H75l-.18.26a1.3,1.3,0,0,0-.1.15h0c-.24.43-.07.92.52,1.26a3.39,3.39,0,0,0,3,0C78.92,22.17,79.08,21.66,78.8,21.22Z"/><path class="cls-3" d="M78,18.85a2.71,2.71,0,0,0-2.48,0,.76.76,0,0,0,0,1.43,2.77,2.77,0,0,0,2.48,0A.76.76,0,0,0,78,18.85Z"/><path class="cls-1" d="M78.54,19.56A1.5,1.5,0,0,0,78,18.45a1.91,1.91,0,0,0-2.48,0A1.5,1.5,0,0,0,75,19.56v1.19a.88.88,0,0,0,.51.72,2.77,2.77,0,0,0,2.48,0,.88.88,0,0,0,.51-.72Z"/><g class="cls-4"><path class="cls-1" d="M54.11,77.88l0,6.76L82.16,68.33a2.9,2.9,0,0,0,1.17-1.13,1.65,1.65,0,0,0,.19-.77l0-6.76C83.54,60.36,54.11,77.88,54.11,77.88Z"/><path class="cls-2" d="M0,49.34,0,56.1A2.37,2.37,0,0,0,1.38,58l46.09,26.6a7.29,7.29,0,0,0,6.62,0l0-6.76S0,50,0,49.34Z"/><path class="cls-3" d="M82.16,57.74c1.83,1.06,1.84,2.77,0,3.83L54.11,77.88a7.29,7.29,0,0,1-6.62,0L1.4,51.28c-1.83-1.06-1.84-2.78,0-3.84L29.45,31.13a7.29,7.29,0,0,1,6.62,0Z"/><path class="cls-5" d="M52.28,48.41a25.32,25.32,0,0,1,9.55,9c.45.78-.2,1.57-1.34,1.73a3.31,3.31,0,0,1-2.08-.37,1.64,1.64,0,0,1-.63-.59,22.66,22.66,0,0,0-8.51-8,44.52,44.52,0,0,0-13.8-4.9,3.22,3.22,0,0,1-1-.36c-.55-.32-.83-.77-.64-1.2.27-.67,1.63-1,3-.79A49.62,49.62,0,0,1,52.28,48.41Z"/><path class="cls-5" d="M46.2,51.94A19,19,0,0,1,53,58.08c.5.81-.13,1.63-1.27,1.79a3.46,3.46,0,0,1-2.11-.38,1.82,1.82,0,0,1-.64-.58,16.15,16.15,0,0,0-5.75-5.22,30.5,30.5,0,0,0-9-3.32,3.78,3.78,0,0,1-1-.36c-.55-.33-.84-.78-.66-1.22.27-.67,1.68-1,3.09-.75A35.85,35.85,0,0,1,46.2,51.94Z"/><path class="cls-5" d="M40.43,55.29a14.79,14.79,0,0,1,4.74,4.13c.6.85,0,1.72-1.18,1.87a3.47,3.47,0,0,1-2.15-.4,2.11,2.11,0,0,1-.63-.54A11.82,11.82,0,0,0,37.42,57a21.43,21.43,0,0,0-5.72-2.19,3.35,3.35,0,0,1-.94-.36c-.57-.33-.88-.79-.7-1.24.26-.67,1.75-1,3.23-.69A26.74,26.74,0,0,1,40.43,55.29Z"/><path class="cls-5" d="M34.65,58.65a8.55,8.55,0,0,1,2.26,1.82A.84.84,0,0,1,36.37,62L35,62.16a2.42,2.42,0,0,1-1.48-.29,1.57,1.57,0,0,1-.39-.31,5.22,5.22,0,0,0-1.43-1.16,8.72,8.72,0,0,0-2-.83,2.27,2.27,0,0,1-.55-.23c-.39-.22-.62-.54-.5-.85l.36-.82c.16-.44,1.36-.66,2.54-.32A13.56,13.56,0,0,1,34.65,58.65Z"/><path class="cls-1" d="M50.7,74.57l-2.92-1.69a.85.85,0,0,0-.76,0,.24.24,0,0,0,0,.44L50,75a.83.83,0,0,0,.75,0A.23.23,0,0,0,50.7,74.57Z"/><path class="cls-1" d="M55.14,72l-2.92-1.69a.83.83,0,0,0-.75,0c-.21.12-.21.31,0,.43l2.92,1.69a.83.83,0,0,0,.75,0C55.35,72.32,55.35,72.13,55.14,72Z"/><path class="cls-1" d="M59.58,69.44l-2.92-1.69a.83.83,0,0,0-.75,0,.23.23,0,0,0,0,.44l2.92,1.69a.83.83,0,0,0,.75,0A.23.23,0,0,0,59.58,69.44Z"/><path class="cls-1" d="M64,66.88,61.1,65.19a.83.83,0,0,0-.75,0c-.21.12-.21.31,0,.43l2.92,1.69a.83.83,0,0,0,.75,0C64.23,67.19,64.23,67,64,66.88Z"/><path class="cls-1" d="M68.47,64.31l-2.92-1.69a.85.85,0,0,0-.76,0,.24.24,0,0,0,0,.44l2.93,1.69a.83.83,0,0,0,.75,0A.23.23,0,0,0,68.47,64.31Z"/><path class="cls-1" d="M72.91,61.75,70,60.06a.83.83,0,0,0-.75,0c-.21.12-.21.31,0,.43l2.92,1.69a.83.83,0,0,0,.75,0C73.12,62.06,73.12,61.87,72.91,61.75Z"/><path class="cls-1" d="M77.35,59.18l-2.92-1.69a.83.83,0,0,0-.75,0,.23.23,0,0,0,0,.44l2.92,1.69a.83.83,0,0,0,.75,0A.23.23,0,0,0,77.35,59.18Z"/><path class="cls-1" d="M10.3,51.26,7.38,49.57a.85.85,0,0,0-.76,0,.24.24,0,0,0,0,.44L9.55,51.7a.83.83,0,0,0,.75,0A.23.23,0,0,0,10.3,51.26Z"/><path class="cls-1" d="M14.74,48.7,11.82,47a.83.83,0,0,0-.75,0c-.21.12-.21.31,0,.43L14,49.13a.83.83,0,0,0,.75,0C15,49,15,48.82,14.74,48.7Z"/><path class="cls-1" d="M19.18,46.13l-2.92-1.69a.83.83,0,0,0-.75,0,.23.23,0,0,0,0,.44l2.92,1.69a.83.83,0,0,0,.75,0A.23.23,0,0,0,19.18,46.13Z"/><path class="cls-1" d="M23.63,43.57,20.7,41.88a.83.83,0,0,0-.75,0c-.21.12-.21.31,0,.43L22.87,44a.85.85,0,0,0,.76,0A.23.23,0,0,0,23.63,43.57Z"/><path class="cls-1" d="M28.07,41l-2.92-1.69a.83.83,0,0,0-.75,0,.23.23,0,0,0,0,.44l2.92,1.69a.83.83,0,0,0,.75,0A.23.23,0,0,0,28.07,41Z"/><path class="cls-1" d="M32.51,38.44l-2.92-1.69a.83.83,0,0,0-.75,0c-.21.12-.21.31,0,.43l2.92,1.69a.83.83,0,0,0,.75,0C32.72,38.75,32.72,38.56,32.51,38.44Z"/><path class="cls-1" d="M37,35.87,34,34.18a.83.83,0,0,0-.75,0,.23.23,0,0,0,0,.44l2.92,1.69a.83.83,0,0,0,.75,0A.23.23,0,0,0,37,35.87Z"/><path class="cls-6" d="M14.4,61.11c-.57-.33-1-.06-1,.6a2.31,2.31,0,0,0,1,1.8c.57.33,1,.06,1-.6A2.31,2.31,0,0,0,14.4,61.11Z"/><path class="cls-7" d="M18.59,63.53c-.57-.33-1-.06-1,.6a2.29,2.29,0,0,0,1,1.79c.57.33,1,.07,1-.59A2.31,2.31,0,0,0,18.59,63.53Z"/><path class="cls-8" d="M22.78,66c-.57-.33-1-.06-1,.6a2.29,2.29,0,0,0,1,1.79c.57.33,1,.07,1-.59A2.31,2.31,0,0,0,22.78,66Z"/><path class="cls-8" d="M27,68.37c-.57-.33-1-.06-1,.6a2.29,2.29,0,0,0,1,1.79c.57.33,1,.07,1-.6A2.29,2.29,0,0,0,27,68.37Z"/><path class="cls-8" d="M31.16,70.79c-.57-.33-1-.06-1,.6a2.29,2.29,0,0,0,1,1.79c.57.33,1,.06,1-.6A2.28,2.28,0,0,0,31.16,70.79Z"/><path class="cls-8" d="M35.35,73.21c-.57-.33-1-.06-1,.6a2.29,2.29,0,0,0,1,1.79c.57.33,1,.06,1-.6A2.28,2.28,0,0,0,35.35,73.21Z"/><path class="cls-2" d="M55.52,78.3v4.12c.3-.18.45-.26.45-2.32S55.82,78.13,55.52,78.3Z"/><path class="cls-2" d="M59.18,76.19V80.3c.3-.17.45-.26.45-2.32S59.48,76,59.18,76.19Z"/><path class="cls-2" d="M62.85,74.07v4.11c.3-.17.45-.26.45-2.31S63.15,73.9,62.85,74.07Z"/><path class="cls-2" d="M66.52,72v4.12c.3-.18.45-.26.45-2.32S66.82,71.78,66.52,72Z"/><path class="cls-2" d="M70.18,69.84V74c.3-.17.45-.26.45-2.32S70.48,69.66,70.18,69.84Z"/><path class="cls-2" d="M73.85,67.72v4.11c.3-.17.45-.26.45-2.31S74.15,67.55,73.85,67.72Z"/><path class="cls-2" d="M77.51,65.6v4.12c.3-.18.45-.26.45-2.32S77.81,65.43,77.51,65.6Z"/><path class="cls-2" d="M81.18,63.49V67.6c.3-.17.45-.26.45-2.32S81.48,63.31,81.18,63.49Z"/></g></g></g></svg>