<?xml version="1.0" encoding="utf-8"?>
<!-- Generator: Adobe Illustrator 22.1.0, SVG Export Plug-In . SVG Version: 6.00 Build 0)  -->
<svg version="1.1" id="Capa_1" xmlns="http://www.w3.org/2000/svg" xmlns:xlink="http://www.w3.org/1999/xlink" x="0px" y="0px"
	 viewBox="0 0 512 512" style="enable-background:new 0 0 512 512;" xml:space="preserve">
<style type="text/css">
	.st0{stroke:#000000;stroke-width:0.25;stroke-miterlimit:10;}
</style>
<g>
	<path class="st0" d="M425,492v-30H87v30H65v-30H4V320h61V80h22v199.1l6.4-4.8c12.4-9.3,27.1-14.2,42.6-14.2h240
		c15.5,0,30.2,4.9,42.6,14.2l6.4,4.8V80h22v240h61v142h-61v30H425z M26,440h460v-98H26V440z M136,282c-20.7,0-39.3,13.1-46.2,32.7
		l-1.9,5.3h336.2l-1.9-5.3c-6.9-19.5-25.5-32.7-46.2-32.7H136z"/>
	<path class="st0" d="M351.4,80c-25.9-24.5-59.6-38-95.4-38s-69.4,13.5-95.4,38l-15.6-15.6C175.2,35.7,214.4,20,256,20
		s80.8,15.7,110.9,44.4L351.4,80z"/>
	<path class="st0" d="M308.9,122.4C294.4,109.2,275.7,102,256,102c-19.7,0-38.4,7.2-52.9,20.4l-15.6-15.6
		C206.2,89.5,230.4,80,256,80c25.6,0,49.8,9.5,68.5,26.8L308.9,122.4z"/>
	<path class="st0" d="M256,222c-22.6,0-41-18.4-41-41s18.4-41,41-41s41,18.4,41,41S278.6,222,256,222z M256,162
		c-10.5,0-19,8.5-19,19s8.5,19,19,19s19-8.5,19-19S266.5,162,256,162z"/>
	<rect x="65" y="380" class="st0" width="22" height="22"/>
	<rect x="125" y="380" class="st0" width="22" height="22"/>
	<rect x="185" y="380" class="st0" width="22" height="22"/>
	<rect x="305" y="380" class="st0" width="142" height="22"/>
</g>
</svg>
