<svg id="Capa_1" enable-background="new 0 0 512 512" height="512" viewBox="0 0 512 512" width="512" xmlns="http://www.w3.org/2000/svg"><g><path d="m115.333 467h-70.333v-459.5c0-4.143-3.357-7.5-7.5-7.5h-30c-4.143 0-7.5 3.357-7.5 7.5s3.357 7.5 7.5 7.5h22.5v23.917h-7.5c-4.143 0-7.5 3.357-7.5 7.5s3.357 7.5 7.5 7.5h7.5v23.916h-22.5c-4.143 0-7.5 3.357-7.5 7.5s3.357 7.5 7.5 7.5h22.5v23.917h-7.5c-4.143 0-7.5 3.357-7.5 7.5s3.357 7.5 7.5 7.5h7.5v23.917h-22.5c-4.143 0-7.5 3.357-7.5 7.5s3.357 7.5 7.5 7.5h22.5v23.916h-7.5c-4.143 0-7.5 3.357-7.5 7.5s3.357 7.5 7.5 7.5h7.5v23.917h-22.5c-4.143 0-7.5 3.357-7.5 7.5s3.357 7.5 7.5 7.5h22.5v23.917h-7.5c-4.143 0-7.5 3.357-7.5 7.5s3.357 7.5 7.5 7.5h7.5v23.916h-22.5c-4.143 0-7.5 3.357-7.5 7.5s3.357 7.5 7.5 7.5h22.5v23.917h-7.5c-4.143 0-7.5 3.357-7.5 7.5s3.357 7.5 7.5 7.5h7.5v23.917h-22.5c-4.143 0-7.5 3.357-7.5 7.5s3.357 7.5 7.5 7.5h22.5v23.916h-7.5c-4.143 0-7.5 3.357-7.5 7.5s3.357 7.5 7.5 7.5h7.5v23.917h-22.5c-4.143 0-7.5 3.357-7.5 7.5s3.357 7.5 7.5 7.5h22.5v22.5c0 4.143 3.357 7.5 7.5 7.5s7.5-3.357 7.5-7.5v-22.5h62.833v22.5c0 4.143 3.357 7.5 7.5 7.5s7.5-3.357 7.5-7.5v-30c0-4.143-3.357-7.5-7.5-7.5z"/><path d="m504.5 467h-359.167c-4.143 0-7.5 3.357-7.5 7.5s3.357 7.5 7.5 7.5h40.334v22.5c0 4.143 3.357 7.5 7.5 7.5s7.5-3.357 7.5-7.5v-22.5h62.833v22.5c0 4.143 3.357 7.5 7.5 7.5s7.5-3.357 7.5-7.5v-22.5h62.833v22.5c0 4.143 3.357 7.5 7.5 7.5s7.5-3.357 7.5-7.5v-22.5h62.834v22.5c0 4.143 3.357 7.5 7.5 7.5s7.5-3.357 7.5-7.5v-22.5h62.833v22.5c0 4.143 3.357 7.5 7.5 7.5s7.5-3.357 7.5-7.5v-30c0-4.143-3.357-7.5-7.5-7.5z"/><path d="m138.941 383.667 41.226-41.226c3.858 2.133 8.289 3.351 13 3.351 7.815 0 14.862-3.346 19.79-8.678l31.534 15.767c-.29 1.581-.449 3.206-.449 4.87 0 14.864 12.094 26.958 26.958 26.958s26.958-12.094 26.958-26.958c0-4.711-1.218-9.142-3.351-13l41.226-41.226c3.858 2.133 8.288 3.351 13 3.351 14.865 0 26.959-12.094 26.959-26.958 0-9.187-4.622-17.311-11.66-22.18l22.546-67.639c.356.014.712.027 1.071.027 14.864 0 26.958-12.094 26.958-26.958 0-4.711-1.218-9.143-3.351-13l41.226-41.226c3.858 2.133 8.288 3.351 13 3.351 14.865 0 26.959-12.094 26.959-26.959 0-14.864-12.094-26.958-26.959-26.958-14.864 0-26.958 12.094-26.958 26.958 0 4.711 1.218 9.143 3.351 13l-41.226 41.226c-3.858-2.133-8.288-3.351-13-3.351-14.864 0-26.958 12.094-26.958 26.959 0 9.186 4.622 17.309 11.659 22.179l-22.547 67.639c-.356-.014-.712-.027-1.071-.027-14.864 0-26.958 12.094-26.958 26.959 0 4.711 1.218 9.142 3.351 13l-41.225 41.225c-3.858-2.133-8.288-3.351-13-3.351-7.815 0-14.861 3.346-19.79 8.677l-31.534-15.767c.29-1.581.449-3.207.449-4.87 0-14.864-12.094-26.958-26.958-26.958-14.865 0-26.959 12.094-26.959 26.958 0 4.712 1.218 9.143 3.351 13l-41.226 41.226c-3.858-2.133-8.289-3.351-13-3.351-14.864 0-26.958 12.094-26.958 26.959 0 14.864 12.094 26.958 26.958 26.958 14.865 0 26.959-12.094 26.959-26.958 0-4.711-1.218-9.142-3.351-12.999zm326.642-310.292c6.594 0 11.959 5.364 11.959 11.958s-5.365 11.959-11.959 11.959-11.958-5.365-11.958-11.959 5.364-11.958 11.958-11.958zm-77.833 77.833c6.594 0 11.958 5.365 11.958 11.959s-5.364 11.958-11.958 11.958-11.958-5.364-11.958-11.958 5.364-11.959 11.958-11.959zm-38.917 116.75c6.594 0 11.959 5.365 11.959 11.959s-5.365 11.958-11.959 11.958-11.958-5.364-11.958-11.958 5.364-11.959 11.958-11.959zm-77.833 77.834c6.594 0 11.958 5.364 11.958 11.958s-5.364 11.958-11.958 11.958-11.958-5.364-11.958-11.958 5.364-11.958 11.958-11.958zm-77.833-38.917c6.594 0 11.958 5.364 11.958 11.958s-5.364 11.959-11.958 11.959-11.959-5.365-11.959-11.959 5.365-11.958 11.959-11.958zm-77.834 101.75c-6.594 0-11.958-5.364-11.958-11.958s5.364-11.959 11.958-11.959 11.959 5.365 11.959 11.959-5.365 11.958-11.959 11.958z"/><path d="m111.996 244.75h54.501l20.554 28.965c1.406 1.983 3.687 3.16 6.116 3.16 2.493-.016 4.778-1.223 6.17-3.235l19.968-28.89h54.441c4.143 0 7.5-3.357 7.5-7.5v-62.125c0-4.143-3.357-7.5-7.5-7.5h-161.75c-4.143 0-7.5 3.357-7.5 7.5v62.125c0 4.143 3.358 7.5 7.5 7.5zm7.5-62.125h146.75v47.125h-50.875c-2.463 0-4.77 1.209-6.17 3.235l-16.115 23.315-16.599-23.391c-1.406-1.982-3.686-3.16-6.116-3.16h-50.875z"/></g></svg>